<?xml version="1.0" encoding="UTF-8"?>
<svg width="1024" height="1024" viewBox="0 0 1024 1024" xmlns="http://www.w3.org/2000/svg">
  <!-- Fondo azul -->
  <rect width="1024" height="1024" fill="#2196F3"/>
  
  <!-- Cuadrícula de crucigrama 5x5 -->
  <g id="grid">
    <!-- Fila 1 -->
    <rect x="262" y="262" width="100" height="100" fill="white" stroke="#1976D2" stroke-width="3"/>
    <rect x="362" y="262" width="100" height="100" fill="white" stroke="#1976D2" stroke-width="3"/>
    <rect x="462" y="262" width="100" height="100" fill="white" stroke="#1976D2" stroke-width="3"/>
    <rect x="562" y="262" width="100" height="100" fill="white" stroke="#1976D2" stroke-width="3"/>
    <rect x="662" y="262" width="100" height="100" fill="white" stroke="#1976D2" stroke-width="3"/>
    
    <!-- Fila 2 -->
    <rect x="262" y="362" width="100" height="100" fill="white" stroke="#1976D2" stroke-width="3"/>
    <rect x="362" y="362" width="100" height="100" fill="white" stroke="#1976D2" stroke-width="3"/>
    <rect x="462" y="362" width="100" height="100" fill="white" stroke="#1976D2" stroke-width="3"/>
    <rect x="562" y="362" width="100" height="100" fill="white" stroke="#1976D2" stroke-width="3"/>
    <rect x="662" y="362" width="100" height="100" fill="white" stroke="#1976D2" stroke-width="3"/>
    
    <!-- Fila 3 -->
    <rect x="262" y="462" width="100" height="100" fill="white" stroke="#1976D2" stroke-width="3"/>
    <rect x="362" y="462" width="100" height="100" fill="white" stroke="#1976D2" stroke-width="3"/>
    <rect x="462" y="462" width="100" height="100" fill="white" stroke="#1976D2" stroke-width="3"/>
    <rect x="562" y="462" width="100" height="100" fill="white" stroke="#1976D2" stroke-width="3"/>
    <rect x="662" y="462" width="100" height="100" fill="white" stroke="#1976D2" stroke-width="3"/>
    
    <!-- Fila 4 -->
    <rect x="262" y="562" width="100" height="100" fill="white" stroke="#1976D2" stroke-width="3"/>
    <rect x="362" y="562" width="100" height="100" fill="white" stroke="#1976D2" stroke-width="3"/>
    <rect x="462" y="562" width="100" height="100" fill="white" stroke="#1976D2" stroke-width="3"/>
    <rect x="562" y="562" width="100" height="100" fill="white" stroke="#1976D2" stroke-width="3"/>
    <rect x="662" y="562" width="100" height="100" fill="white" stroke="#1976D2" stroke-width="3"/>
    
    <!-- Fila 5 -->
    <rect x="262" y="662" width="100" height="100" fill="white" stroke="#1976D2" stroke-width="3"/>
    <rect x="362" y="662" width="100" height="100" fill="white" stroke="#1976D2" stroke-width="3"/>
    <rect x="462" y="662" width="100" height="100" fill="white" stroke="#1976D2" stroke-width="3"/>
    <rect x="562" y="662" width="100" height="100" fill="white" stroke="#1976D2" stroke-width="3"/>
    <rect x="662" y="662" width="100" height="100" fill="white" stroke="#1976D2" stroke-width="3"/>
  </g>
  
  <!-- Letras C, R, O, S, S -->
  <text x="295" y="340" font-family="Arial, sans-serif" font-size="70" font-weight="bold" fill="#1565C0">C</text>
  <text x="395" y="340" font-family="Arial, sans-serif" font-size="70" font-weight="bold" fill="#1565C0">R</text>
  <text x="495" y="340" font-family="Arial, sans-serif" font-size="70" font-weight="bold" fill="#1565C0">O</text>
  <text x="595" y="340" font-family="Arial, sans-serif" font-size="70" font-weight="bold" fill="#1565C0">S</text>
  <text x="695" y="340" font-family="Arial, sans-serif" font-size="70" font-weight="bold" fill="#1565C0">S</text>
  
  <!-- Letra W vertical -->
  <text x="485" y="540" font-family="Arial, sans-serif" font-size="70" font-weight="bold" fill="#1565C0">W</text>
  
  <!-- Letras D en la esquina -->
  <text x="695" y="740" font-family="Arial, sans-serif" font-size="70" font-weight="bold" fill="#1565C0">D</text>
  
  <!-- Estrella dorada -->
  <circle cx="750" cy="274" r="30" fill="#FFC107"/>
  <text x="737" y="290" font-family="Arial, sans-serif" font-size="35" font-weight="bold" fill="white">★</text>
  
  <!-- Texto grande CW en el centro -->
  <text x="380" y="550" font-family="Arial, sans-serif" font-size="200" font-weight="bold" fill="white" opacity="0.9">CW</text>
</svg>
